<svg width="160" height="160" viewBox="0 0 160 160" fill="none" xmlns="http://www.w3.org/2000/svg">
<path d="M118.73 142.607H92.1054C89.569 142.607 87.516 140.579 87.516 138.07V21.9304C87.516 19.4244 89.569 17.3896 92.1054 17.3896H118.73C121.266 17.3896 123.319 19.4244 123.319 21.9304C123.319 24.4364 121.266 26.4676 118.73 26.4676H96.6912V133.529H118.73C121.266 133.529 123.319 135.564 123.319 138.07C123.318 140.579 121.265 142.607 118.73 142.607Z" fill="#F0DB4F"/>
<path d="M118.73 84.5381H69.5574C67.021 84.5381 64.968 82.5069 64.968 79.9973C64.968 77.4877 67.021 75.4601 69.5574 75.4601H118.73C121.266 75.4601 123.319 77.4877 123.319 79.9973C123.319 82.5069 121.265 84.5381 118.73 84.5381Z" fill="#F0DB4F"/>
<path d="M137.833 116.146C125.607 116.146 115.664 125.985 115.664 138.075C115.664 150.165 125.609 160 137.833 160C150.056 160 160 150.165 160 138.075C160 125.985 150.056 116.146 137.833 116.146Z" fill="#F0DB4F"/>
<path d="M137.833 58.2825C125.607 58.2825 115.664 68.1179 115.664 80.2111C115.664 92.297 125.609 102.132 137.833 102.132C150.056 102.132 160 92.297 160 80.2111C160 68.1179 150.056 58.2825 137.833 58.2825Z" fill="#F0DB4F"/>
<path d="M137.833 43.8536C150.056 43.8536 160 34.0182 160 21.9323C160 9.83907 150.056 0 137.833 0C125.607 0 115.664 9.83907 115.664 21.9323C115.664 34.02 125.607 43.8536 137.833 43.8536Z" fill="#F0DB4F"/>
<path d="M67.7964 47.0763H3.62726V110.566H67.7964V47.0763Z" fill="#F0DB4F"/>
<path d="M38.548 96.5929C38.548 102.772 34.8811 105.592 29.5383 105.592C24.7115 105.592 21.9184 103.126 20.4859 100.136L25.3988 97.2024C26.3442 98.8605 27.2036 100.263 29.2805 100.263C31.2571 100.263 32.5179 99.4981 32.5179 96.508V76.2279H38.548V96.5929Z" fill="#323330"/>
<path d="M52.8142 105.592C47.2137 105.592 43.5899 102.956 41.8281 99.4981L46.7411 96.6919C48.0302 98.7753 49.7202 100.32 52.6853 100.32C55.1776 100.32 56.7816 99.0871 56.7816 97.3725C56.7816 95.3315 55.1489 94.6091 52.3845 93.4043L50.8806 92.7666C46.5263 90.9384 43.6471 88.6283 43.6471 83.7676C43.6471 79.2892 47.099 75.8879 52.4702 75.8879C56.3089 75.8879 59.059 77.2059 61.0357 80.6639L56.3375 83.6399C55.3064 81.8117 54.1891 81.0891 52.456 81.0891C50.6941 81.0891 49.5768 82.1947 49.5768 83.6399C49.5768 85.4257 50.6941 86.1486 53.2867 87.2678L54.7905 87.9056C59.9183 90.074 62.7973 92.2992 62.7973 97.2876C62.7976 102.644 58.5291 105.592 52.8142 105.592Z" fill="#323330"/>
</svg>
